<svg xmlns="http://www.w3.org/2000/svg" data-name="Layer 1" viewBox="0 0 100 100" x="0px" y="0px"><title>ac</title><path d="M84.5,35.2h-69a2,2,0,0,0-2,2V62.8a2,2,0,0,0,2,2h69a2,2,0,0,0,2-2V37.2A2,2,0,0,0,84.5,35.2Zm-2,4V58.71h-65V39.2Z"></path><rect x="20.84" y="54.37" width="56.09" height="1"></rect><rect x="20.84" y="52.21" width="56.09" height="1"></rect><rect x="20.84" y="50.06" width="56.09" height="1"></rect><rect x="68.06" y="41.97" width="2.47" height="3"></rect><rect x="72.33" y="41.97" width="4.6" height="3"></rect></svg>