<svg xmlns="http://www.w3.org/2000/svg" xmlns:xlink="http://www.w3.org/1999/xlink" viewBox="0 0 24 22" version="1.1" x="0px" y="0px"><title>50 -AC Unit- (Outline)</title><desc>Created with Sketch.</desc><g stroke="none" stroke-width="1" fill="none" fill-rule="evenodd"><g fill="#000000"><path d="M21,10 L3,10 C2.44728475,10 2,9.55271525 2,9 L2,3 C2,2.44728475 2.44728475,2 3,2 L21,2 C21.5527153,2 22,2.44728475 22,3 L22,9 C22,9.55271525 21.5527153,10 21,10 Z M21,12 C22.6572847,12 24,10.6572847 24,9 L24,3 C24,1.34271525 22.6572847,0 21,0 L3,0 C1.34271525,0 0,1.34271525 0,3 L0,9 C0,10.6572847 1.34271525,12 3,12 L21,12 Z"></path><path d="M5,9 L19,9 C19.5522847,9 20,8.55228475 20,8 C20,7.44771525 19.5522847,7 19,7 L5,7 C4.44771525,7 4,7.44771525 4,8 C4,8.55228475 4.44771525,9 5,9 Z"></path><path d="M12.4602505,20.8877891 C14.3469165,19.9096975 14.3469165,17.2773025 12.4602505,16.2992109 C12.0130165,16.0677373 12.0130165,16.1196456 12.4602505,15.8877891 C12.9505629,15.6335997 13.1419784,15.0300618 12.8877891,14.5397495 C12.6335997,14.0494371 12.0300618,13.8580216 11.5397495,14.1122109 C9.65298353,15.0903544 9.65298353,17.0982627 11.5403494,18.0750998 C11.9870835,18.3066975 11.9870835,18.8803025 11.5397495,19.1122109 C11.0494371,19.3664003 10.8580216,19.9699382 11.1122109,20.4602505 C11.3664003,20.9505629 11.9699382,21.1419784 12.4602505,20.8877891 Z"></path><path d="M7.46025055,21.8877891 C9.33673974,20.9149733 9.48566101,18.284428 7.58525055,17.2992109 C7.13801647,17.0677373 7.13801647,17.1196456 7.58525055,16.8877891 C8.07556291,16.6335997 8.26697843,16.0300618 8.01278907,15.5397495 C7.75859971,15.0494371 7.15506182,14.8580216 6.66474945,15.1122109 C4.77798353,16.0903544 4.77798353,18.0982627 6.66534936,19.0750998 C7.06506509,19.282322 7.03254633,19.8567335 6.53974945,20.1122109 C6.04943709,20.3664003 5.85802157,20.9699382 6.11221093,21.4602505 C6.36640029,21.9505629 6.96993818,22.1419784 7.46025055,21.8877891 Z"></path><path d="M17.4602505,21.8877891 C19.3469165,20.9096975 19.3469165,18.2773025 17.4602505,17.2992109 C17.0130165,17.0677373 17.0130165,17.1196456 17.4602505,16.8877891 C17.9505629,16.6335997 18.1419784,16.0300618 17.8877891,15.5397495 C17.6335997,15.0494371 17.0300618,14.8580216 16.5397495,15.1122109 C14.6529835,16.0903544 14.6529835,18.0982627 16.5403494,19.0750998 C16.9870835,19.3066975 16.9870835,19.8803025 16.5397495,20.1122109 C16.0494371,20.3664003 15.8580216,20.9699382 16.1122109,21.4602505 C16.3664003,21.9505629 16.9699382,22.1419784 17.4602505,21.8877891 Z"></path></g></g></svg>